<svg width="42" height="42" viewBox="0 0 42 42" fill="none" xmlns="http://www.w3.org/2000/svg">
<path d="M35.1406 1H6.85938C3.62848 1 1 3.62848 1 6.85938V35.1406C1 38.3715 3.62848 41 6.85938 41H35.1406C38.3715 41 41 38.3715 41 35.1406V6.85938C41 3.62848 38.3715 1 35.1406 1ZM38.6562 35.1406C38.6562 37.0791 37.0791 38.6562 35.1406 38.6562H6.85938C4.9209 38.6562 3.34375 37.0791 3.34375 35.1406V6.85938C3.34375 4.9209 4.9209 3.34375 6.85938 3.34375H35.1406C37.0791 3.34375 38.6562 4.9209 38.6562 6.85938V35.1406Z" fill="#070707" stroke="#070707" stroke-width="0.5"/>
</svg>
